<svg xmlns="http://www.w3.org/2000/svg" width="200" viewBox="0 0 980.496 751.895"><g transform="translate(-.001)"><path data-name="Rectangle 1" fill="#3f3d56" d="M313.494 117h2v107h-2z"/><path data-name="Rectangle 2" fill="#3f3d56" d="M313.494 255.85h2v94.149h-2z"/><path data-name="Rectangle 3" fill="#3f3d56" d="M310.494 365h155v2h-155z"/><path data-name="Rectangle 4" fill="#3f3d56" d="M244.494 392h2v85h-2z"/><path data-name="Rectangle 5" fill="#3f3d56" d="M262.494 492h235v2h-235z"/><path data-name="Rectangle 6" fill="#3f3d56" d="M691.494 49h2v101h-2z"/><path data-name="Rectangle 7" fill="#3f3d56" d="M529.46 166h147.034v2H529.46z"/><path data-name="Rectangle 8" fill="#3f3d56" d="M512.494 182h2v135h-2z"/><path data-name="Path 3" d="M314.494 257a17 17 0 1117-17 17 17 0 01-17 17zm0-32a15 15 0 1015 15 15 15 0 00-15-15z" fill="#3f3d56"/><path data-name="Path 4" d="M246.494 510a17 17 0 1117-17 17 17 0 01-17 17zm0-32a15 15 0 1015 15 15 15 0 00-15-15z" fill="#3f3d56"/><circle data-name="Ellipse 1" cx="16" cy="16" r="16" transform="translate(299.494 350)" fill="#f7df00"/><path data-name="Rectangle 9" fill="#3f3d56" d="M728.494 239h166v2h-166z"/><path data-name="Rectangle 10" fill="#3f3d56" d="M711.494 255.85h2v94.149h-2z"/><path data-name="Rectangle 11" fill="#3f3d56" d="M562.494 365h133v2h-133z"/><path data-name="Rectangle 12" fill="#3f3d56" d="M796.494 374h138v2h-138z"/><path data-name="Rectangle 13" fill="#3f3d56" d="M780.494 392h2v85h-2z"/><path data-name="Rectangle 14" fill="#3f3d56" d="M529.494 492h235v2h-235z"/><path data-name="Rectangle 15" fill="#3f3d56" d="M512.494 415h2v62h-2z"/><circle data-name="Ellipse 2" cx="16" cy="16" r="16" transform="translate(696.494 224)" fill="#f7df00"/><path data-name="Path 5" d="M692.494 183a17 17 0 1117-17 17 17 0 01-17 17zm0-32a15 15 0 1015 15 15 15 0 00-15-15z" fill="#3f3d56"/><path data-name="Path 6" d="M513.494 183a17 17 0 1117-17 17 17 0 01-17 17zm0-32a15 15 0 1015 15 15 15 0 00-15-15z" fill="#3f3d56"/><path data-name="Path 7" d="M780.494 393a17 17 0 1117-17 17 17 0 01-17 17zm0-32a15 15 0 1015 15 15 15 0 00-15-15z" fill="#3f3d56"/><circle data-name="Ellipse 3" cx="16" cy="16" r="16" transform="translate(764.494 477)" fill="#f7df00"/><path data-name="Path 8" d="M513.494 510a17 17 0 1117-17 17 17 0 01-17 17zm0-32a15 15 0 1015 15 15 15 0 00-15-15z" fill="#3f3d56"/><path data-name="Path 9" d="M711.494 383a17 17 0 1117-17 17 17 0 01-17 17zm0-32a15 15 0 1015 15 15 15 0 00-15-15z" fill="#3f3d56"/><path data-name="Path 10" d="M246.494 342a20 20 0 1020 20 20 20 0 00-20-20zm0 6a6 6 0 11-6 6 6 6 0 016-6zm0 28.885a14.57 14.57 0 01-12-6.4c.1-4 8-6.2 12-6.2s11.9 2.2 12 6.2a14.594 14.594 0 01-12 6.4z" fill="#3f3d56"/><path data-name="Path 11" d="M315.494 69a20 20 0 1020 20 20 20 0 00-20-20zm0 6a6 6 0 11-6 6 6 6 0 016-6zm0 28.885a14.57 14.57 0 01-12-6.4c.1-4 8-6.2 12-6.2s11.9 2.2 12 6.2a14.594 14.594 0 01-12 6.4z" fill="#3f3d56"/><path data-name="Path 12" d="M692.494 0a20 20 0 1020 20 20 20 0 00-20-20zm0 6a6 6 0 11-6 6 6 6 0 016-6zm0 28.885a14.57 14.57 0 01-12-6.4c.1-4 8-6.2 12-6.2s11.9 2.2 12 6.2a14.594 14.594 0 01-12 6.4z" fill="#3f3d56"/><path data-name="Path 13" d="M922.497 219a20 20 0 1020 20 20 20 0 00-20-20zm0 6a6 6 0 11-6 6 6 6 0 016-6zm0 28.885a14.57 14.57 0 01-12-6.4c.1-4 8-6.2 12-6.2s11.9 2.2 12 6.2a14.594 14.594 0 01-12 6.4z" fill="#3f3d56"/><path data-name="Path 14" d="M960.497 354a20 20 0 1020 20 20 20 0 00-20-20zm0 6a6 6 0 11-6 6 6 6 0 016-6zm0 28.885a14.57 14.57 0 01-12-6.4c.1-4 8-6.2 12-6.2s11.9 2.2 12 6.2a14.594 14.594 0 01-12 6.4z" fill="#3f3d56"/><path data-name="Path 18" d="M152 733.294c-2.845 25.876-152.226 23.7-152 0 2.847-25.876 152.226-23.704 152 0z" fill="#e6e6e6"/><path data-name="Path 19" d="M103.754 668.156l6.056 13.12 11.1-1.009 7.065-23.213L116.874 651z" fill="#ffb8b8"/><path data-name="Path 20" d="M65.642 698.373l-.239 9.143 17.157 1.009v-11.1z" fill="#ffb8b8"/><path data-name="Path 21" d="M71.458 531.908l4.042 80.739-10.1 87.804 30.277 4.037 19.176-111.016 6.055-75.694z" fill="#2f2e41"/><path data-name="Path 22" d="M24.024 502.64s-12.111 79.73 13.12 105.971 59.545 72.666 59.545 72.666L120.911 651l-61.564-65.602 12.111-44.407 49.453-23.213-8.074-55.508-72.666-1.009z" fill="#2f2e41"/><circle data-name="Ellipse 4" cx="22.203" cy="22.203" r="22.203" transform="translate(61.366 273.541)" fill="#ffb8b8"/><path data-name="Path 23" d="M64.394 300.791s-1.009 31.287-6.055 35.324 18.166 21.194 18.166 21.194l15.142-24.222v-22.2z" fill="#ffb8b8"/><path data-name="Path 24" d="M74.486 343.179l-12.253-18.5-6.923 9.421-10.092 28.255 8.074 110.007 47.434 1.009 6.056-126.155-15.139-18.166z" fill="#d0cde1"/><path data-name="Path 25" d="M125.958 350.248l8.074-1.009s2.018 1.009 3.028 8.074 13.12 69.635 13.12 69.635l-16.148 76.7-18.166-24.222 11.1-42.388-11.1-42.388z" fill="#2f2e41"/><path data-name="Path 26" d="M23.015 349.234h-6.056L1.821 430.983l14.129 63.583 14.129-23.213-4.037-25.231 2.019-22.2 7.065-13.122z" fill="#2f2e41"/><path data-name="Path 27" d="M112.837 677.239s-6.055-2.018-6.055 2.018 4.037 16.148 4.037 16.148-6.055 37.342 3.028 35.324 16.148-19.176 17.157-24.222 6.055-31.287 6.055-31.287 8.074-19.176 3.028-20.185-19.176-5.046-19.176-5.046 8.074 25.232-8.074 27.25z" fill="#2f2e41"/><path data-name="Path 28" d="M83.569 708.526s-16.148-10.093-19.176-2.018a84.8 84.8 0 00-4.037 18.166s-4.037 13.12 12.111 11.1 14.129-2.018 15.139-8.074-4.037-19.174-4.037-19.174z" fill="#2f2e41"/><path data-name="Path 29" d="M70.447 295.748l4.037-1.009s3.028-17.157 10.092-15.139 25.231 4.037 25.231-4.037-17.157-15.139-27.25-14.129-27.25 4.037-26.24 19.176 7.522 29.865 7.522 29.865l.526-8.976z" fill="#2f2e41"/><path data-name="Path 30" d="M91.643 355.29l-17.157-12.111 17.157-14.129 5.957 7.15z" fill="#d0cde1"/><path data-name="Path 31" d="M59.347 354.281l15.139-11.1-12.111-18.168-7.065 9.087z" fill="#d0cde1"/><path data-name="Path 32" d="M133.022 349.235l-32.3-13.12-7.569-5.551-22.706 100.42-15.137-45.416 4.542-58.032-41.884 21.7 14.13 68.628 2.018 26.24-6.055 21.195s-21.194 15.139-14.129 31.287 15.139 17.157 15.139 17.157 34.314-32.3 36.333-40.37 5.046-22.2 5.046-22.2 17.157 64.592 37.342 63.582 20.185-22.2 20.185-22.2l-5.046-22.2-8.074-23.213 4.037-38.351z" fill="#2f2e41"/><g data-name="Group 2" transform="translate(146 -309)"><ellipse data-name="Ellipse 5" cx="38" cy="37.5" rx="38" ry="37.5" transform="translate(330.001 638)" fill="#f7df00"/><g data-name="Group 1" fill="#fff"><path data-name="Path 33" d="M351.815 664.842l16.675-16.79 16.618 16.79s-6.383 6.785-6.44 6.555-10.7-10.638-10.7-10.638L357.853 671.4z"/><path data-name="Path 34" d="M346.927 669.615l6.268 5.865-5.808 6.153-6.9-6.153z"/><path data-name="Path 35" d="M361.935 675.624l6.268-6.411 6.21 6.411-6.21 6.239z"/><path data-name="Path 36" d="M351.815 686.06s5.75-6.325 5.923-6.1 10.638 10.868 10.638 10.868l10.063-10.868 6.613 6.1-16.675 16.905z"/><path data-name="Path 37" d="M382.693 675.5l6.958 6.247 5.865-6.247-6.325-6.4z"/></g></g></g></svg>